<svg aria-hidden="true" style="position: absolute; width: 0; height: 0; overflow: hidden;" version="1.1" xmlns="http://www.w3.org/2000/svg" xmlns:xlink="http://www.w3.org/1999/xlink">
<defs>
<symbol id="arrowRight" viewBox="0 0 44 44" fill="currentcolor">
<path d="M25.523 2.492c-0.589 0.589-0.92 1.389-0.92 2.222s0.331 1.633 0.92 2.222l10.346 10.349-32.727 0.022c-0.834 0-1.633 0.331-2.222 0.921s-0.921 1.389-0.921 2.222c0 0.834 0.331 1.633 0.921 2.222s1.389 0.921 2.222 0.921l32.73-0.022-10.349 10.349c-0.3 0.29-0.54 0.637-0.704 1.020s-0.251 0.796-0.255 1.213c-0.004 0.417 0.076 0.831 0.234 1.218s0.391 0.737 0.687 1.032c0.295 0.295 0.646 0.529 1.032 0.687s0.8 0.237 1.217 0.234c0.417-0.004 0.83-0.091 1.213-0.255s0.73-0.404 1.020-0.704l11.27-11.267c0.876-0.876 1.57-1.915 2.044-3.059s0.718-2.37 0.718-3.609-0.244-2.465-0.718-3.609c-0.474-1.144-1.169-2.184-2.044-3.059l-11.27-11.27c-0.589-0.589-1.389-0.92-2.222-0.92s-1.633 0.331-2.222 0.92z"></path>
</symbol>
<symbol id="asia" viewBox="0 0 44 44" fill="currentcolor">
<path d="M15.131 13.567h2.125c0.551 0 1 0.449 1 1v1.465c0 0.356 0.289 0.644 0.644 0.644s0.645-0.289 0.645-0.644v-1.465c0-1.262-1.027-2.289-2.289-2.289h-2.125c-0.542 0-0.983-0.441-0.983-0.983s0.441-0.983 0.983-0.983h4.711c1.253 0 2.272-1.019 2.272-2.272s-1.019-2.272-2.272-2.272h-3.769c-0.356 0-0.644 0.289-0.644 0.645s0.289 0.645 0.644 0.645h3.769c0.542 0 0.983 0.441 0.983 0.983s-0.441 0.983-0.983 0.983h-4.711c-1.253 0-2.272 1.019-2.272 2.272s1.019 2.272 2.272 2.272z"></path>
<path d="M7.389 17.892h2.109c0.544 0 0.987 0.443 0.987 0.987v1.454c0 0.356 0.288 0.644 0.644 0.644s0.644-0.289 0.644-0.644v-1.454c0-1.255-1.021-2.276-2.276-2.276h-2.109c-0.535 0-0.971-0.435-0.971-0.97s0.435-0.971 0.971-0.971h2.465c0.356 0 0.645-0.289 0.645-0.644s-0.289-0.645-0.645-0.645h-2.465c-1.246 0-2.26 1.014-2.26 2.26s1.014 2.26 2.26 2.26z"></path>
<path d="M25.652 26.813c0.356 0 0.645-0.289 0.645-0.644s-0.289-0.645-0.645-0.645c-0.356 0-0.644 0.289-0.644 0.645s0.289 0.644 0.644 0.644z"></path>
<path d="M28.832 28.273c0.356 0 0.645-0.288 0.645-0.644s-0.289-0.644-0.645-0.644c-0.356 0-0.644 0.288-0.644 0.644s0.289 0.644 0.644 0.644z"></path>
<path d="M30.723 30.508c0.356 0 0.644-0.289 0.644-0.644s-0.289-0.644-0.644-0.644c-0.356 0-0.645 0.288-0.645 0.644s0.289 0.644 0.645 0.644z"></path>
<path d="M28.059 25.266c0.356 0 0.644-0.288 0.644-0.644s-0.288-0.644-0.644-0.644c-0.356 0-0.644 0.288-0.644 0.644s0.288 0.644 0.644 0.644z"></path>
<path d="M25.91 30.938c0.356 0 0.644-0.289 0.644-0.644s-0.289-0.645-0.644-0.645c-0.356 0-0.645 0.289-0.645 0.645s0.289 0.644 0.645 0.644z"></path>
<path d="M42.911 22.811h-1.828l0.904-1.868c1.146-0.228 2.013-1.242 2.013-2.454 0-1.244-0.912-2.278-2.102-2.47-1.315-2.369-3.885-4.149-7.001-4.859v-0.049c0-0.356-0.288-0.645-0.644-0.645-0.295 0-0.543 0.199-0.62 0.469-0.393-0.051-0.792-0.083-1.196-0.1-0.103-0.218-0.325-0.369-0.582-0.369s-0.478 0.151-0.582 0.369c-0.405 0.017-0.804 0.050-1.196 0.1-0.076-0.27-0.325-0.469-0.62-0.469-0.356 0-0.644 0.289-0.644 0.645v0.049c-3.116 0.71-5.686 2.49-7.001 4.859-1.19 0.192-2.102 1.227-2.102 2.47 0 0.073 0.003 0.145 0.009 0.215-2.976 0.277-5.649 1.52-7.655 3.385h-4.050c-0.276 0-0.523 0.124-0.69 0.318h-1.893c-0.31-0.783-1.080-1.337-1.957-1.337-1.16 0-2.104 0.944-2.104 2.104 0 0.099 0.008 0.197 0.021 0.294-0.81 0.293-1.391 1.069-1.391 1.979 0 0.404 0.115 0.792 0.325 1.125-0.211 0.332-0.325 0.721-0.325 1.125 0 1.16 0.944 2.104 2.104 2.104 0.877 0 1.647-0.554 1.957-1.337h1.705c0.078 0.287 0.294 0.524 0.585 0.623l2.021 0.686c-0.012 0.208-0.019 0.418-0.019 0.629 0 0.199 0.006 0.397 0.016 0.594-0.316 0.076-0.611 0.207-0.873 0.383-0.432-0.29-0.951-0.459-1.509-0.459-1.499 0-2.718 1.219-2.718 2.718 0 0.023 0.002 0.046 0.002 0.068h-0.754c-0.426 0-0.803 0.239-0.984 0.624s-0.127 0.828 0.144 1.156l1.934 2.35c0.208 0.252 0.514 0.397 0.841 0.397h27.26c0.356 0 0.644-0.288 0.644-0.644s-0.288-0.644-0.644-0.644h-27.165l-1.604-1.949h39.544l-1.604 1.949h-6.164c-0.356 0-0.645 0.289-0.645 0.644s0.288 0.644 0.645 0.644h6.258c0.327 0 0.633-0.145 0.841-0.397l1.934-2.349c0.27-0.329 0.325-0.772 0.144-1.157s-0.559-0.624-0.984-0.624h-0.638c0.633-1.096 0.871-2.395 0.64-3.672-0.048-0.264-0.255-0.471-0.519-0.519-1.746-0.316-3.536 0.243-4.788 1.495-0.076 0.076-0.149 0.156-0.221 0.236-0.369-0.2-0.79-0.316-1.237-0.325v-1.226h0.688c1.090 0 1.977-0.887 1.977-1.977v-0.865h4.1c0.6 0 1.089-0.488 1.089-1.089v-1.865c0-0.6-0.488-1.089-1.089-1.089zM6.291 33.706h-1.731c-0.001-0.023-0.002-0.045-0.002-0.068 0-0.788 0.641-1.429 1.429-1.429 0.224 0 0.436 0.053 0.625 0.145-0.206 0.383-0.323 0.82-0.323 1.284 0 0.023 0.002 0.046 0.002 0.068zM38.516 31.922c0.843-0.843 2.006-1.273 3.184-1.195 0.072 1.085-0.288 2.158-1.005 2.979h-1.063l0.881-0.881c0.252-0.252 0.252-0.66 0-0.911s-0.66-0.252-0.912 0l-0.913 0.913c-0.081-0.258-0.199-0.499-0.348-0.717 0.057-0.064 0.115-0.127 0.176-0.188zM25.503 13.942c0.976-0.654 2.102-1.144 3.309-1.452v0.663c0 0.356 0.288 0.645 0.644 0.645s0.645-0.289 0.645-0.645v-0.919c0.365-0.052 0.736-0.086 1.109-0.105v1.024c0 0.356 0.288 0.645 0.645 0.645s0.644-0.289 0.644-0.645v-1.024c0.373 0.019 0.743 0.054 1.109 0.105v0.919c0 0.356 0.288 0.645 0.645 0.645s0.644-0.289 0.644-0.645v-0.663c1.207 0.308 2.333 0.798 3.309 1.452 0.95 0.637 1.725 1.406 2.289 2.256-0.218 0.096-0.422 0.222-0.604 0.375-0.445-0.373-1.013-0.587-1.607-0.587s-1.162 0.214-1.607 0.587c-0.445-0.373-1.013-0.587-1.607-0.587s-1.162 0.214-1.607 0.587c-0.445-0.373-1.013-0.587-1.607-0.587s-1.162 0.214-1.607 0.587c-0.445-0.373-1.013-0.587-1.607-0.587s-1.162 0.214-1.607 0.587c-0.445-0.373-1.013-0.587-1.607-0.587s-1.162 0.214-1.607 0.587c-0.183-0.153-0.387-0.279-0.604-0.375 0.564-0.85 1.338-1.619 2.289-2.256zM22.212 17.275c0.43 0 0.832 0.233 1.050 0.607 0.115 0.199 0.328 0.321 0.558 0.321s0.442-0.122 0.558-0.321c0.217-0.375 0.619-0.607 1.050-0.607s0.833 0.233 1.050 0.607c0.115 0.199 0.328 0.321 0.558 0.321s0.442-0.122 0.558-0.321c0.217-0.374 0.619-0.607 1.050-0.607s0.832 0.233 1.050 0.607c0.115 0.199 0.328 0.321 0.557 0.321s0.442-0.122 0.558-0.321c0.217-0.374 0.619-0.607 1.050-0.607s0.832 0.233 1.050 0.607c0.115 0.199 0.328 0.321 0.558 0.321s0.442-0.122 0.558-0.321c0.217-0.374 0.619-0.607 1.050-0.607s0.832 0.233 1.050 0.607c0.115 0.199 0.328 0.321 0.558 0.321s0.442-0.122 0.558-0.321c0.217-0.374 0.619-0.607 1.050-0.607s0.832 0.233 1.050 0.607c0.115 0.199 0.328 0.321 0.558 0.321s0.442-0.122 0.558-0.321c0.217-0.374 0.619-0.607 1.050-0.607 0.669 0 1.214 0.544 1.214 1.214s-0.544 1.214-1.214 1.214c-0.43 0-0.833-0.233-1.050-0.607-0.115-0.199-0.328-0.321-0.558-0.321s-0.442 0.122-0.558 0.321c-0.217 0.375-0.619 0.607-1.050 0.607s-0.832-0.233-1.050-0.607c-0.115-0.199-0.328-0.321-0.558-0.321s-0.442 0.122-0.558 0.321c-0.217 0.375-0.619 0.607-1.050 0.607s-0.833-0.233-1.050-0.607c-0.115-0.199-0.328-0.321-0.558-0.321s-0.442 0.122-0.558 0.321c-0.217 0.375-0.619 0.607-1.050 0.607s-0.833-0.233-1.050-0.607c-0.115-0.199-0.328-0.321-0.558-0.321s-0.442 0.122-0.557 0.321c-0.217 0.375-0.619 0.607-1.050 0.607s-0.832-0.233-1.050-0.607c-0.115-0.199-0.328-0.321-0.558-0.321s-0.442 0.122-0.558 0.321c-0.127 0.219-0.317 0.389-0.539 0.493-1.514-0.603-3.179-0.939-4.927-0.942-0.007-0.052-0.011-0.104-0.011-0.157 0-0.669 0.544-1.214 1.214-1.214zM8.392 23.379h2.472c-0.254 0.316-0.492 0.644-0.712 0.984h-1.76v-0.984zM5.733 27.175h-2.176c-0.335 0-0.615 0.257-0.642 0.591-0.035 0.418-0.391 0.746-0.811 0.746-0.449 0-0.815-0.365-0.815-0.815 0-0.244 0.108-0.473 0.296-0.628 0.148-0.123 0.234-0.305 0.234-0.497s-0.086-0.374-0.234-0.497c-0.188-0.156-0.296-0.385-0.296-0.628 0-0.449 0.365-0.815 0.815-0.815 0.42 0 0.776 0.328 0.811 0.746 0.028 0.334 0.307 0.591 0.642 0.591h2.176v1.205h-0zM5.953 24.681h-1.893c-0.237-0.599-0.743-1.062-1.36-1.248-0.027-0.082-0.042-0.169-0.042-0.258 0-0.449 0.365-0.815 0.815-0.815 0.42 0 0.776 0.328 0.811 0.746 0.028 0.334 0.307 0.591 0.642 0.591h2.176v0.665h-0.459c-0.276 0-0.523 0.124-0.691 0.318zM10.433 33.706h-2.853c-0.001-0.023-0.002-0.045-0.002-0.068 0-0.788 0.641-1.429 1.429-1.429s1.429 0.641 1.429 1.429c0 0.023-0.001 0.046-0.002 0.068zM30.312 33.706h-2.244c-0.001-0.023-0.002-0.045-0.002-0.068 0-0.788 0.641-1.429 1.429-1.429 0.394 0 0.751 0.16 1.010 0.419-0.126 0.313-0.195 0.653-0.195 1.010-0 0.023 0.002 0.046 0.002 0.068zM29.495 30.92c-1.499 0-2.718 1.219-2.718 2.718 0 0.023 0.002 0.046 0.002 0.068h-15.057c0.001-0.023 0.002-0.045 0.002-0.068 0-1.273-0.88-2.344-2.063-2.638-0.012-0.198-0.019-0.398-0.019-0.598 0-0.066 0.001-0.131 0.002-0.197l6.592 2.238c0.444 0.151 0.898 0.225 1.348 0.225 0.85 0 1.684-0.265 2.404-0.781 1.102-0.789 1.733-2.019 1.733-3.374 0-0.485-0.083-0.96-0.247-1.413-0.121-0.335-0.491-0.508-0.826-0.387s-0.508 0.491-0.387 0.826c0.113 0.312 0.17 0.64 0.17 0.974 0 0.934-0.436 1.782-1.195 2.326s-1.702 0.684-2.587 0.383l-9.629-3.27v-2.302h10.55c0.323 0 0.642 0.054 0.947 0.161 0.336 0.118 0.704-0.059 0.822-0.395s-0.059-0.704-0.395-0.822c-0.442-0.155-0.904-0.234-1.373-0.234h-5.844c2.056-2.677 5.438-4.428 9.256-4.428 6.253 0 11.341 4.696 11.341 10.468 0 0.206-0.007 0.412-0.020 0.616-0.389 0.108-0.744 0.3-1.043 0.557-0.475-0.408-1.092-0.655-1.766-0.655zM34.454 33.706h-2.853c-0.001-0.023-0.002-0.045-0.002-0.068 0-0.788 0.641-1.429 1.429-1.429s1.429 0.641 1.429 1.429c0 0.023-0.001 0.046-0.002 0.068zM34.858 31.22c-0.103 0.053-0.203 0.111-0.297 0.176-0.287-0.197-0.613-0.339-0.964-0.414 0.010-0.192 0.015-0.385 0.015-0.579 0-0.238-0.010-0.473-0.025-0.707h1.27v1.525zM37.523 33.638c0 0.023-0.001 0.046-0.002 0.068h-1.777c0.001-0.023 0.002-0.045 0.002-0.068 0-0.457-0.114-0.887-0.314-1.266 0.198-0.104 0.423-0.163 0.662-0.163 0.788 0 1.429 0.641 1.429 1.429zM37.523 27.718c0 0.379-0.308 0.688-0.688 0.688h-3.407c-0.098-0.53-0.232-1.049-0.404-1.553h4.498v0.865zM42.711 25.564h-10.218c-0.248-0.508-0.533-0.997-0.853-1.464h2.735c0.356 0 0.644-0.289 0.644-0.645s-0.288-0.644-0.644-0.644h-3.756c-0.617-0.677-1.313-1.289-2.077-1.821 0.033 0.001 0.065 0.002 0.098 0.002 0.594 0 1.162-0.214 1.607-0.587 0.445 0.373 1.013 0.587 1.607 0.587s1.162-0.214 1.607-0.587c0.445 0.373 1.013 0.587 1.607 0.587s1.162-0.214 1.607-0.587c0.445 0.373 1.013 0.587 1.607 0.587s1.162-0.214 1.607-0.587c0.215 0.18 0.459 0.323 0.721 0.423l-0.96 1.984h-2.268c-0.356 0-0.644 0.289-0.644 0.644s0.288 0.645 0.644 0.645h5.328v1.464z"></path>
</symbol>
<symbol id="burger" viewBox="0 0 44 44" fill="currentcolor">
<path d="M44 20.336c0-1.689-1.089-3.128-2.602-3.653-0.232-5.241-2.189-9.263-5.825-11.965-3.319-2.467-7.885-3.717-13.573-3.717s-10.254 1.251-13.573 3.717c-3.636 2.703-5.593 6.724-5.825 11.965-1.513 0.525-2.602 1.964-2.602 3.653 0 0.99 0.374 1.893 0.988 2.578-0.614 0.685-0.988 1.588-0.988 2.578 0 1.7 1.103 3.146 2.63 3.663 0.553 5.89 5.56 10.517 11.636 10.517h15.469c6.076 0 11.083-4.626 11.636-10.517 1.527-0.517 2.63-1.963 2.63-3.663 0-0.99-0.374-1.893-0.988-2.578 0.614-0.685 0.988-1.588 0.988-2.578zM22 3.578c7.393 0 16.151 2.279 16.803 12.891h-33.607c0.652-10.612 9.41-12.891 16.803-12.891zM3.867 19.047h36.266c0.711 0 1.289 0.578 1.289 1.289s-0.578 1.289-1.289 1.289h-36.266c-0.711 0-1.289-0.578-1.289-1.289s0.578-1.289 1.289-1.289zM29.734 37.094h-15.469c-4.581 0-8.383-3.367-9.016-7.734h1.196c0.862 0 1.134 0.293 1.677 0.877 0.667 0.718 1.58 1.701 3.566 1.701 2 0 2.889-0.993 3.539-1.718 0.513-0.573 0.77-0.86 1.618-0.86s1.105 0.287 1.618 0.86c0.649 0.725 1.539 1.718 3.539 1.718s2.889-0.993 3.539-1.718c0.513-0.573 0.77-0.86 1.618-0.86s1.105 0.287 1.618 0.86c0.649 0.725 1.539 1.718 3.539 1.718s2.889-0.993 3.539-1.718c0.513-0.573 0.77-0.86 1.618-0.86h1.282c-0.633 4.367-4.435 7.734-9.016 7.734zM40.133 26.781h-2.664c-2 0-2.889 0.993-3.539 1.718-0.513 0.573-0.77 0.86-1.618 0.86s-1.105-0.287-1.618-0.86c-0.649-0.725-1.539-1.718-3.539-1.718s-2.889 0.993-3.538 1.718c-0.513 0.573-0.77 0.86-1.618 0.86s-1.105-0.287-1.618-0.86c-0.649-0.725-1.539-1.718-3.538-1.718s-2.889 0.993-3.539 1.718c-0.513 0.573-0.77 0.86-1.618 0.86-0.862 0-1.134-0.293-1.677-0.877-0.667-0.718-1.58-1.701-3.566-1.701h-2.578c-0.711 0-1.289-0.578-1.289-1.289s0.578-1.289 1.289-1.289h36.266c0.711 0 1.289 0.578 1.289 1.289s-0.578 1.289-1.289 1.289z"></path>
<path d="M14.266 13.891c0.712 0 1.289-0.577 1.289-1.289s-0.577-1.289-1.289-1.289c-0.712 0-1.289 0.577-1.289 1.289s0.577 1.289 1.289 1.289z"></path>
<path d="M29.734 13.891c0.712 0 1.289-0.577 1.289-1.289s-0.577-1.289-1.289-1.289c-0.712 0-1.289 0.577-1.289 1.289s0.577 1.289 1.289 1.289z"></path>
<path d="M24.578 11.313c0.712 0 1.289-0.577 1.289-1.289s-0.577-1.289-1.289-1.289c-0.712 0-1.289 0.577-1.289 1.289s0.577 1.289 1.289 1.289z"></path>
<path d="M19.422 8.734c0.712 0 1.289-0.577 1.289-1.289s-0.577-1.289-1.289-1.289c-0.712 0-1.289 0.577-1.289 1.289s0.577 1.289 1.289 1.289z"></path>
</symbol>
<symbol id="call" viewBox="0 0 44 44" fill="currentcolor">
<path stroke-linejoin="round" stroke-linecap="round" stroke-miterlimit="4" stroke-width="3" d="M26.706 3c7.402 0.822 13.25 6.662 14.080 14.064"></path>
<path stroke-linejoin="round" stroke-linecap="round" stroke-miterlimit="4" stroke-width="3" d="M26.706 10.086c3.542 0.688 6.31 3.458 7 7"></path>
<path stroke-linejoin="round" stroke-linecap="round" stroke-miterlimit="4" stroke-width="3" d="M20.063 22.945c7.978 7.976 9.788-1.251 14.868 3.825 4.897 4.896 7.714 5.877 1.507 12.080-0.777 0.625-5.715 8.139-23.069-9.21-17.356-17.351-9.846-22.295-9.221-23.072 6.22-6.22 7.186-3.389 12.083 1.507 5.077 5.078-4.146 6.894 3.832 14.87z"></path>
</symbol>
<symbol id="cart" viewBox="0 0 44 44" fill="currentcolor">
<path stroke-linejoin="round" stroke-linecap="round" stroke-miterlimit="4" stroke-width="3.1429" d="M2.095 3.143l4.358 0.746 2.018 23.76c0.161 1.94 1.802 3.429 3.771 3.423h22.857c1.879 0.004 3.474-1.363 3.74-3.202l1.988-13.581c0.222-1.518-0.844-2.926-2.378-3.146-0.134-0.019-31.297-0.029-31.297-0.029"></path>
<path stroke-linejoin="round" stroke-linecap="round" stroke-miterlimit="4" stroke-width="3.1429" d="M25.929 18.768h5.81"></path>
<path stroke-linejoin="round" stroke-linecap="round" stroke-miterlimit="4" stroke-width="3.1429" d="M11.323 38.25c0.631 0 1.14 0.505 1.14 1.127 0 0.624-0.509 1.129-1.14 1.129s-1.14-0.506-1.14-1.129c0-0.622 0.509-1.127 1.14-1.127z"></path>
<path stroke-linejoin="round" stroke-linecap="round" stroke-miterlimit="4" stroke-width="3.1429" d="M34.958 38.25c0.631 0 1.142 0.505 1.142 1.127 0 0.624-0.511 1.129-1.142 1.129s-1.14-0.506-1.14-1.129c0-0.622 0.509-1.127 1.14-1.127z"></path>
</symbol>
<symbol id="delivery" viewBox="0 0 44 44" fill="currentcolor">
<path d="M8.435 31.666l0.527 1.256c0.372-0.153 0.76-0.266 1.156-0.337l-0.246-1.338c-0.493 0.089-0.975 0.229-1.437 0.419z"></path>
<path d="M4.823 35.039l1.237 0.592c0.428-0.873 1.080-1.621 1.89-2.169l-0.776-1.122c-1.008 0.682-1.819 1.612-2.352 2.698z"></path>
<path d="M42.625 34.656c0.001-1.17-0.436-2.3-1.226-3.171l-1.025 0.906c0.406 0.448 0.685 0.996 0.806 1.585h-4.744c-0.113 0-0.225 0.028-0.324 0.080s-0.185 0.129-0.248 0.222l-2.546 3.775h-1.695v-2.039c0.001-1.261 0.509-2.47 1.411-3.362s2.125-1.393 3.401-1.395h1.375c0.676-0.001 1.337 0.196 1.9 0.566l0.761-1.132c-0.594-0.391-1.268-0.645-1.974-0.745v-2.087c0-0.18-0.072-0.353-0.201-0.48s-0.304-0.199-0.486-0.199c-0.729-0.001-1.428-0.287-1.944-0.797s-0.805-1.2-0.806-1.921v-2.718h2.062c0.182 0 0.357-0.072 0.486-0.199s0.201-0.3 0.201-0.481v-4.757c0-0.18-0.072-0.353-0.201-0.48s-0.304-0.199-0.486-0.199h-1.213c-0.287 0-0.573 0.039-0.85 0.116v-0.795c0-0.154-0.053-0.304-0.151-0.425l-2.249-2.779c0.295-0.491 0.401-1.071 0.299-1.633s-0.405-1.069-0.855-1.428c-0.449-0.359-1.014-0.547-1.592-0.528s-1.129 0.242-1.554 0.629c-0.425 0.387-0.694 0.913-0.759 1.48s0.079 1.139 0.405 1.611c0.326 0.471 0.813 0.811 1.372 0.957s1.152 0.088 1.671-0.163l2.038 2.518v0.857l-3.022-0.996c-0.198-0.067-0.406-0.101-0.615-0.1h-5.671l-3.264-3.764c0.273-0.188 0.496-0.438 0.65-0.729s0.235-0.615 0.235-0.944v-0.26l0.995-0.492c0.087-0.043 0.164-0.104 0.226-0.179s0.106-0.162 0.131-0.255 0.030-0.19 0.014-0.285c-0.016-0.095-0.052-0.186-0.106-0.266l-1.129-1.674c0.157-0.030 0.298-0.113 0.4-0.235s0.157-0.275 0.157-0.432c-0.001-1.081-0.436-2.117-1.209-2.882s-1.822-1.194-2.915-1.196c-1.295 0-2.494 0.368-3.385 1.341-0.386 0.423-0.679 0.92-0.859 1.461s-0.244 1.113-0.187 1.68l0.147 1.454c0.062 0.627 0.365 1.206 0.847 1.618v12.831c-0 0.477 0.127 0.946 0.37 1.359h-1.058c-0.234-0-0.467 0.039-0.687 0.117v-8.951c-0.001-0.54-0.218-1.059-0.605-1.441s-0.911-0.597-1.458-0.598h-8.25c-0.547 0.001-1.071 0.216-1.458 0.598s-0.604 0.9-0.605 1.441v3.398h1.375v-1.359h9.625v6.795h-9.625v-4.077h-1.375v5.549c-0 0.318 0.113 0.626 0.319 0.871s0.493 0.409 0.81 0.466l6.433 1.156v1.595c-0.583 0.133-1.152 0.32-1.7 0.556h-3.8c-0.182 0-0.357 0.072-0.486 0.199s-0.201 0.3-0.201 0.481v3.225c-0.898 1.491-1.373 3.194-1.375 4.929 0 0.18 0.072 0.353 0.201 0.481s0.304 0.199 0.486 0.199h3.151c0.411 1.004 1.116 1.863 2.024 2.469s1.979 0.929 3.075 0.929 2.166-0.323 3.075-0.929c0.908-0.605 1.613-1.465 2.024-2.469h11.559c0.479-0 0.953-0.099 1.391-0.291s0.831-0.471 1.153-0.821l0.736-0.8v1.912c0 0.18 0.072 0.353 0.201 0.481s0.304 0.199 0.486 0.199h1.425c0.605 1.036 1.54 1.846 2.658 2.304s2.359 0.538 3.528 0.229c1.169-0.31 2.203-0.992 2.94-1.942s1.137-2.113 1.137-3.309c0.001-0.52-0.075-1.038-0.224-1.537 0.071-0.063 0.127-0.141 0.166-0.227s0.058-0.18 0.058-0.274zM29.563 10.533c0-0.202 0.060-0.399 0.174-0.566s0.274-0.298 0.463-0.375 0.396-0.097 0.596-0.058c0.2 0.039 0.384 0.136 0.528 0.279s0.242 0.324 0.282 0.522c0.040 0.198 0.019 0.403-0.059 0.589s-0.21 0.345-0.38 0.457c-0.17 0.112-0.369 0.172-0.573 0.172-0.273-0-0.536-0.108-0.729-0.299s-0.302-0.45-0.302-0.72zM19.727 34.656c-0.673-0.001-1.319-0.266-1.795-0.736s-0.744-1.109-0.745-1.774c0-0.667 0.171-1.291 0.621-1.804 0.401-0.456 0.954-0.755 1.56-0.841 0.73-0.103 1.399-0.463 1.882-1.014s0.75-1.256 0.75-1.985c0-0.089-0.018-0.178-0.052-0.26s-0.085-0.157-0.149-0.22c0.117-0.242 0.184-0.504 0.199-0.771s-0.025-0.535-0.115-0.787h1.867l-3.017 7.753c-0.073 0.187-0.109 0.385-0.107 0.586v1.854h-0.898zM22 33.297h3.437c0.148 0 0.291 0.047 0.409 0.134s0.205 0.209 0.248 0.349 0.039 0.289-0.011 0.426c-0.050 0.137-0.143 0.255-0.265 0.336-0.173 0.075-0.359 0.114-0.548 0.115h-3.271v-1.359zM27.335 33.178c-0.137-0.316-0.352-0.593-0.626-0.805s-0.597-0.353-0.941-0.408l2.847-6.775c0.253-0.602 0.352-1.257 0.288-1.906s-0.289-1.272-0.656-1.814c-0.366-0.542-0.862-0.987-1.444-1.294s-1.231-0.468-1.891-0.468h-2.913v-1.078l0.201 0.199c0.064 0.063 0.14 0.113 0.223 0.147s0.173 0.052 0.263 0.052h6.993c-0.11 0.307-0.144 0.636-0.099 0.96s0.168 0.631 0.359 0.897c0.19 0.266 0.443 0.483 0.736 0.633s0.618 0.228 0.948 0.228h0.002c-0.448 0.587-0.69 1.303-0.69 2.039v5.271c-0.001 0.36-0.146 0.706-0.403 0.961l-3.2 3.162zM31.625 20.386c-0.136 0-0.269-0.040-0.382-0.115s-0.201-0.181-0.253-0.305c-0.052-0.124-0.066-0.261-0.039-0.393s0.092-0.253 0.188-0.348c0.096-0.095 0.219-0.16 0.352-0.186s0.272-0.013 0.397 0.039c0.126 0.052 0.233 0.139 0.309 0.25s0.116 0.243 0.116 0.378c-0 0.18-0.073 0.353-0.202 0.48s-0.304 0.199-0.486 0.199zM36.437 16.989v3.398h-1.375v-3.186c0.261-0.138 0.553-0.211 0.85-0.212h0.525zM33.687 19.707c0-0.326-0.079-0.648-0.231-0.937s-0.371-0.539-0.641-0.727-0.581-0.31-0.908-0.355c-0.327-0.045-0.66-0.011-0.971 0.098v-1.213l2.75 0.906v2.228zM24.063 16.309h5.5v1.359h-6.59l-3.924-3.878-0.972 0.961 2.549 2.519v2.437h-4.125v-8.154h3.121l3.919 4.519c0.065 0.074 0.145 0.134 0.235 0.175s0.188 0.062 0.287 0.062zM16.197 3.613c0.628-0.686 1.462-0.894 2.366-0.894 0.609 0.001 1.201 0.201 1.683 0.57s0.826 0.885 0.98 1.468h-2.663c-0.182 0-0.357 0.072-0.486 0.199s-0.201 0.3-0.201 0.48v1.614c-0.001 0.283-0.112 0.554-0.309 0.758s-0.467 0.326-0.752 0.34c-0.286 0.014-0.566-0.080-0.783-0.264s-0.355-0.443-0.384-0.724l-0.147-1.454c-0.040-0.378 0.001-0.76 0.121-1.121s0.317-0.693 0.576-0.973zM16.758 9.514c0.661-0.001 1.294-0.26 1.762-0.722s0.73-1.088 0.731-1.741v-0.934h1.375c0 0.134 0.040 0.265 0.115 0.377l0.943 1.398-0.679 0.335c-0.114 0.056-0.21 0.143-0.277 0.251s-0.103 0.231-0.103 0.357v0.68c-0 0.18-0.073 0.353-0.202 0.48s-0.304 0.199-0.486 0.199h-3.437v-0.693c0.086 0.009 0.172 0.013 0.258 0.013zM16.5 21.745v-0.68h8.413c0.433 0 0.86 0.106 1.242 0.308s0.708 0.494 0.949 0.85c0.241 0.356 0.389 0.766 0.431 1.192s-0.023 0.857-0.189 1.252l-3.055 7.27h-1.978l3.078-7.91c0.040-0.103 0.054-0.214 0.041-0.324s-0.053-0.214-0.116-0.305c-0.063-0.091-0.148-0.165-0.247-0.217s-0.209-0.078-0.32-0.078h-6.875c-0.365-0.001-0.714-0.144-0.972-0.399s-0.403-0.6-0.403-0.96zM14.437 24.463h5.5c0.182 0 0.357 0.072 0.486 0.199s0.201 0.3 0.201 0.481c0 0.18-0.072 0.353-0.201 0.481s-0.304 0.199-0.486 0.199h-5.5c-0.182 0-0.357-0.072-0.486-0.199s-0.201-0.3-0.201-0.481c0-0.18 0.072-0.353 0.201-0.481s0.304-0.199 0.486-0.199zM2.75 14.95v-0.68c0-0.18 0.073-0.353 0.202-0.48s0.304-0.199 0.486-0.199h8.25c0.182 0 0.357 0.072 0.486 0.199s0.201 0.3 0.202 0.48v0.68h-9.625zM2.75 24.463h9.625v1.359h-2.688l-6.937-1.247v-0.112zM4.975 30.579c-0.298 0.239-0.582 0.496-0.85 0.769v-0.769h0.85zM10.313 40.772c-0.723-0.003-1.433-0.193-2.060-0.55s-1.147-0.871-1.512-1.488h1.754c0.502 0.438 1.148 0.68 1.817 0.68s1.316-0.242 1.817-0.68h1.754c-0.364 0.618-0.885 1.131-1.512 1.488s-1.336 0.547-2.060 0.55zM28.497 36.708c-0.193 0.21-0.429 0.378-0.692 0.492s-0.547 0.174-0.834 0.174h-24.192c0.148-1.774 0.87-3.454 2.061-4.79s2.784-2.257 4.546-2.627c0.178-0.038 0.359-0.058 0.541-0.058h4.512v-1.359h-4.125v-1.359h10.166c-0.116 0.258-0.297 0.483-0.526 0.654s-0.497 0.281-0.78 0.321c-0.933 0.133-1.786 0.592-2.404 1.296-0.665 0.757-0.956 1.704-0.956 2.695-0.001 0.921 0.332 1.811 0.939 2.51h-5.752v1.359h14.271c0.728-0.005 1.426-0.291 1.945-0.796l4.292-4.242c0.514-0.511 0.803-1.201 0.806-1.922v-5.271c0-0.421 0.133-0.833 0.379-1.177s0.594-0.605 0.996-0.746v2.602c0.001 0.963 0.347 1.895 0.976 2.631s1.501 1.228 2.462 1.39v1.416c-0.427 0-0.864-0.025-1.288 0.029-1.286 0.126-2.5 0.646-3.473 1.488s-1.654 1.962-1.951 3.206l-1.917 2.085zM36.805 35.336h0.035l0.83 0.82c0.144 0.143 0.225 0.337 0.226 0.539 0 0.151-0.045 0.298-0.13 0.423s-0.205 0.223-0.346 0.281c-0.141 0.058-0.296 0.073-0.445 0.043s-0.287-0.102-0.395-0.209l-0.633-0.625 0.858-1.272zM37.125 40.772c-0.596-0.002-1.184-0.13-1.725-0.377s-1.022-0.606-1.41-1.053c0.109-0.052 0.202-0.132 0.269-0.232l0.596-0.883c0.331 0.48 0.809 0.842 1.364 1.034s1.157 0.203 1.718 0.031c0.562-0.171 1.053-0.516 1.401-0.984s0.537-1.033 0.536-1.614c0.001-0.403-0.090-0.8-0.265-1.164-0.032-0.067-0.067-0.131-0.105-0.195h1.51c0.219 0.615 0.287 1.273 0.196 1.919s-0.337 1.261-0.718 1.793c-0.381 0.533-0.886 0.967-1.472 1.267s-1.236 0.457-1.896 0.457z"></path>
<path d="M5.5 17.668h-1.375v4.077h1.375v-4.077z"></path>
</symbol>
<symbol id="dish" viewBox="0 0 44 44" fill="currentcolor">
<path d="M31.158 14.657l-0.471-1.532c-0.598-1.74-2.51-2.671-4.27-2.080-0.99 0.333-1.768 1.101-2.104 2.080l-0.471 1.532c-0.396 1.292-0.479 2.657-0.243 3.987 0.216 1.119 0.935 2.081 1.954 2.613l-0.527 11.65c-0.071 0.65 0.143 1.299 0.587 1.784 0.955 1.032 2.575 1.104 3.619 0.16 0.057-0.051 0.111-0.105 0.162-0.16 0.434-0.471 0.647-1.102 0.587-1.736l-0.53-11.7c1.018-0.533 1.735-1.494 1.951-2.612 0.237-1.329 0.153-2.695-0.243-3.987zM29.956 18.392c-0.159 0.804-0.739 1.464-1.522 1.732-0.297 0.11-0.489 0.398-0.475 0.711l0.557 12.236c0.026 0.24-0.054 0.479-0.22 0.657-0.442 0.432-1.153 0.432-1.594 0-0.174-0.192-0.253-0.45-0.216-0.705l0.553-12.188c0.014-0.314-0.177-0.601-0.474-0.711-0.783-0.268-1.363-0.928-1.522-1.732-0.196-1.104-0.127-2.237 0.202-3.31l0.471-1.532c0.364-0.974 1.458-1.471 2.443-1.111 0.521 0.19 0.931 0.596 1.124 1.111l0.471 1.532c0.328 1.072 0.398 2.206 0.202 3.31z"></path>
<path d="M19.8 10.872c-0.405 0-0.733 0.325-0.733 0.725v6.223l-1.985 1.962c-0.147 0.145-0.225 0.344-0.215 0.549l0.642 12.684c0.015 0.273-0.085 0.541-0.277 0.739-0.401 0.4-1.055 0.403-1.46 0.006-0.002-0.002-0.004-0.004-0.006-0.006-0.192-0.198-0.292-0.465-0.277-0.739l0.646-12.684c0.010-0.205-0.068-0.404-0.214-0.549l-1.986-1.962v-6.223c0-0.4-0.328-0.725-0.733-0.725s-0.733 0.325-0.733 0.725v6.523c0 0.192 0.077 0.377 0.215 0.512l1.97 1.948-0.626 12.365c-0.067 1.351 0.987 2.499 2.354 2.565s2.528-0.976 2.595-2.326c0.004-0.079 0.004-0.159 0-0.238l-0.626-12.365 1.97-1.948c0.137-0.136 0.215-0.32 0.215-0.512v-6.523c0-0.4-0.328-0.725-0.733-0.725z"></path>
<path d="M15.4 10.872c-0.405 0-0.733 0.325-0.733 0.725v5.799c0 0.4 0.328 0.725 0.733 0.725s0.733-0.325 0.733-0.725v-5.799c0-0.4-0.328-0.725-0.733-0.725z"></path>
<path d="M17.6 10.872c-0.405 0-0.733 0.325-0.733 0.725v5.799c0 0.4 0.328 0.725 0.733 0.725s0.733-0.325 0.733-0.725v-5.799c0-0.4-0.328-0.725-0.733-0.725z"></path>
<path d="M22 0c-12.15 0-22 9.735-22 21.745s9.85 21.745 22 21.745c12.15 0 22-9.736 22-21.745-0.014-12.004-9.855-21.731-22-21.745zM22 42.040c-11.34 0-20.533-9.086-20.533-20.295s9.193-20.295 20.533-20.295c11.34 0 20.533 9.086 20.533 20.295-0.013 11.203-9.198 20.282-20.533 20.295z"></path>
<path d="M24.38 35.351c-0.039-0.399-0.398-0.69-0.801-0.651-0.009 0.001-0.019 0.002-0.028 0.003l0.003-0.001c-1.032 0.119-2.075 0.119-3.108 0-0.402-0.047-0.767 0.238-0.814 0.636s0.241 0.758 0.643 0.805c1.145 0.132 2.302 0.132 3.447 0 0.403-0.039 0.698-0.394 0.659-0.792z"></path>
<path d="M33.22 12.405c-0.26-0.307-0.723-0.347-1.033-0.090-0.001 0.001-0.002 0.002-0.003 0.002-0.31 0.258-0.349 0.715-0.088 1.021 4.421 5.188 4.083 12.859-0.778 17.647-0.287 0.283-0.288 0.742-0.002 1.025s0.75 0.284 1.037 0.002c5.403-5.32 5.779-13.844 0.867-19.609z"></path>
<path d="M17.086 9.582c-0.001 0-0.001-0.001-0.001-0.001s-0.002 0.001-0.002 0.001h0.004z"></path>
<path d="M25.459 7.653c-2.866-0.679-5.872-0.496-8.632 0.524-0.379 0.141-0.571 0.559-0.428 0.934 0.107 0.282 0.381 0.469 0.686 0.47 0.088-0 0.175-0.016 0.256-0.047 2.486-0.919 5.193-1.083 7.773-0.471 0.394 0.094 0.79-0.145 0.885-0.534s-0.147-0.781-0.54-0.875z"></path>
<path d="M12.649 30.95c-2.472-2.439-3.858-5.752-3.849-9.205-0.007-2.759 0.877-5.447 2.523-7.674 0.243-0.32 0.178-0.774-0.146-1.015s-0.783-0.176-1.027 0.144c-0.004 0.006-0.009 0.011-0.013 0.017-4.24 5.761-3.616 13.714 1.472 18.76 0.287 0.284 0.752 0.284 1.039 0s0.287-0.743 0-1.027z"></path>
</symbol>
<symbol id="facebook" viewBox="0 0 44 44" fill="currentcolor">
<path d="M16.86 43.007v-20.18h-5.336v-7.266h5.336v-6.206c0-4.877 3.152-9.355 10.415-9.355 2.941 0 5.115 0.282 5.115 0.282l-0.171 6.785c0 0-2.218-0.022-4.638-0.022-2.619 0-3.039 1.207-3.039 3.21v5.305h7.885l-0.343 7.266h-7.542v20.18h-7.683z"></path>
</symbol>
<symbol id="instagram" viewBox="0 0 44 44" fill="currentcolor">
<path d="M21.445 14.297c-3.939 0-7.153 3.214-7.153 7.153s3.214 7.153 7.153 7.153 7.153-3.214 7.153-7.153c0-3.939-3.214-7.153-7.153-7.153zM42.898 21.45c0-2.962 0.027-5.897-0.139-8.854-0.167-3.434-0.95-6.482-3.461-8.994-2.517-2.517-5.559-3.295-8.994-3.461-2.962-0.166-5.897-0.14-8.854-0.14-2.962 0-5.897-0.027-8.854 0.14-3.434 0.166-6.482 0.95-8.994 3.461-2.517 2.517-3.295 5.559-3.461 8.994-0.166 2.962-0.14 5.897-0.14 8.854s-0.027 5.897 0.14 8.854c0.166 3.434 0.95 6.482 3.461 8.994 2.517 2.517 5.559 3.295 8.994 3.461 2.962 0.166 5.897 0.139 8.854 0.139 2.962 0 5.897 0.027 8.854-0.139 3.434-0.167 6.482-0.95 8.994-3.461 2.517-2.517 3.295-5.559 3.461-8.994 0.172-2.957 0.139-5.892 0.139-8.854zM21.445 32.456c-6.091 0-11.006-4.915-11.006-11.006s4.915-11.006 11.006-11.006 11.006 4.915 11.006 11.006c0 6.090-4.915 11.006-11.006 11.006zM32.901 12.564c-1.422 0-2.57-1.148-2.57-2.57s1.148-2.57 2.57-2.57c1.422 0 2.57 1.148 2.57 2.57 0 0.338-0.066 0.672-0.195 0.984s-0.318 0.596-0.557 0.834c-0.239 0.239-0.522 0.428-0.834 0.557s-0.647 0.195-0.984 0.195z"></path>
</symbol>
<symbol id="left" viewBox="0 0 44 44" fill="currentcolor">
<path d="M28.245 41.798l-17.938-17.938c-1.392-1.399-1.392-3.659 0-5.059l17.938-17.938c1.342-1.152 3.326-1.152 4.667 0 1.503 1.288 1.679 3.555 0.391 5.059l-15.391 15.391 15.391 15.427c1.392 1.399 1.392 3.659 0 5.059-1.399 1.392-3.659 1.392-5.058 0z"></path>
</symbol>
<symbol id="location" viewBox="0 0 44 44" fill="currentcolor">
<path stroke-linejoin="round" stroke-linecap="round" stroke-miterlimit="4" stroke-width="3.3" d="M27.5 18.701c0-3.039-2.462-5.501-5.499-5.501-3.039 0-5.501 2.462-5.501 5.501 0 3.037 2.462 5.499 5.501 5.499 3.037 0 5.499-2.462 5.499-5.499z"></path>
<path stroke-linejoin="round" stroke-linecap="round" stroke-miterlimit="4" stroke-width="3.3" d="M21.999 41.8c-2.637 0-16.499-11.224-16.499-22.961 0-9.189 7.386-16.639 16.499-16.639s16.501 7.451 16.501 16.639c0 11.737-13.864 22.961-16.501 22.961z"></path>
</symbol>
<symbol id="message" viewBox="0 0 44 44" fill="currentcolor">
<path stroke-linejoin="round" stroke-linecap="round" stroke-miterlimit="4" stroke-width="3" d="M33.805 15.702l-8.887 7.226c-1.679 1.332-4.041 1.332-5.72 0l-8.962-7.226"></path>
<path stroke-linejoin="round" stroke-linecap="round" stroke-miterlimit="4" stroke-width="3" d="M31.818 40c6.083 0.017 10.182-4.981 10.182-11.123v-13.737c0-6.142-4.1-11.14-10.182-11.14h-19.636c-6.083 0-10.182 4.998-10.182 11.14v13.737c0 6.142 4.1 11.14 10.182 11.123h19.636z"></path>
</symbol>
<symbol id="pizza" viewBox="0 0 44 44" fill="currentcolor">
<path d="M43.745 43.752c-0.235 0.232-0.582 0.309-0.892 0.198l-35.694-12.727c-1.24 0.758-2.813 0.936-4.256 0.339-2.395-0.992-3.536-3.747-2.544-6.142 2.339-5.647 5.716-10.701 10.038-15.023s9.376-7.699 15.023-10.038c0.586-0.243 1.194-0.358 1.793-0.358 1.846 0 3.6 1.094 4.349 2.902 0.504 1.217 0.456 2.526-0.026 3.651l12.418 36.31c0.107 0.312 0.025 0.658-0.209 0.89zM12.563 31.325l3.783 1.349c0.444-0.473 0.661-1.124 0.574-1.783-0.076-0.58-0.374-1.096-0.838-1.452s-1.039-0.51-1.619-0.434c-0.58 0.076-1.096 0.374-1.452 0.838-0.328 0.428-0.484 0.949-0.447 1.482zM29.974 3.56c-0.629-1.519-2.377-2.243-3.896-1.614-11.003 4.558-19.573 13.128-24.131 24.131-0.305 0.736-0.305 1.546 0 2.282s0.878 1.309 1.614 1.614c0.736 0.305 1.546 0.305 2.282 0s1.309-0.878 1.614-1.614c1.951-4.71 4.768-8.926 8.373-12.531s7.821-6.422 12.531-8.373c1.519-0.629 2.243-2.377 1.614-3.896zM37.609 29.62c-0.078 0.002-0.156 0.006-0.233 0.017-0.58 0.076-1.096 0.374-1.452 0.838s-0.51 1.039-0.434 1.619c0.158 1.197 1.26 2.043 2.458 1.886 0.369-0.049 0.716-0.192 1.012-0.41l-1.351-3.95zM39.532 35.241c-0.419 0.228-0.879 0.38-1.359 0.443-2.137 0.282-4.105-1.228-4.386-3.366-0.136-1.035 0.139-2.062 0.774-2.89 0.612-0.798 1.489-1.319 2.478-1.478l-1.708-4.995-1.964 1.507c-0.376 0.289-0.916 0.218-1.205-0.159s-0.218-0.916 0.159-1.205l2.424-1.86-4.442-12.99c-0.373 0.324-0.802 0.595-1.282 0.794-9.108 3.773-16.201 10.866-19.973 19.973-0.131 0.317-0.294 0.611-0.482 0.882l2.301 0.821c0.080-0.693 0.347-1.355 0.783-1.923 0.636-0.828 1.556-1.36 2.591-1.496 0.173-0.023 0.346-0.034 0.518-0.034 0.855 0 1.682 0.279 2.372 0.808 0.828 0.636 1.36 1.556 1.496 2.591 0.122 0.929-0.095 1.85-0.582 2.613l10.683 3.809 0.405-0.977c0.137-0.331 0.457-0.531 0.794-0.531 0.11 0 0.221 0.021 0.329 0.066 0.438 0.182 0.647 0.684 0.465 1.123l-0.372 0.898 11.405 4.067-2.22-6.491z"></path>
<path d="M9.281 20.945c-0.003 0.004-0.010 0.015-0.012 0.019-0.263 0.395-0.796 0.501-1.191 0.238s-0.501-0.795-0.24-1.19c0.165-0.253 0.44-0.391 0.721-0.391 0.159 0 0.32 0.044 0.464 0.137 0.399 0.257 0.515 0.788 0.258 1.188z"></path>
<path d="M7.974 23.080c-0.837 1.468-1.59 3.005-2.237 4.567-0.182 0.439-0.685 0.647-1.123 0.465s-0.647-0.684-0.465-1.123c0.675-1.629 1.459-3.231 2.332-4.761 0.159-0.278 0.449-0.434 0.747-0.434 0.144 0 0.291 0.036 0.425 0.113 0.412 0.235 0.556 0.76 0.321 1.172z"></path>
<path d="M26.893 33.001c-0.17 0.023-0.343 0.034-0.514 0.034-1.952 0-3.617-1.461-3.872-3.399-0.281-2.137 1.228-4.105 3.365-4.386 0.17-0.023 0.343-0.034 0.514-0.034 1.952 0 3.617 1.461 3.872 3.399 0.281 2.137-1.228 4.105-3.365 4.386zM28.554 28.84c-0.143-1.086-1.075-1.905-2.168-1.905-0.096 0-0.194 0.006-0.29 0.019-1.197 0.158-2.043 1.26-1.886 2.458 0.143 1.086 1.075 1.905 2.168 1.905 0.096 0 0.194-0.006 0.29-0.019 1.197-0.158 2.043-1.26 1.886-2.458z"></path>
<path d="M26.669 22.312c-0.17 0.023-0.343 0.034-0.514 0.034-1.952 0-3.617-1.461-3.872-3.399-0.136-1.035 0.139-2.062 0.774-2.89s1.556-1.36 2.591-1.496c0.17-0.022 0.343-0.034 0.514-0.034 1.952 0 3.617 1.461 3.872 3.4 0.281 2.137-1.228 4.104-3.365 4.386zM28.33 18.15c-0.143-1.086-1.075-1.905-2.168-1.905-0.096 0-0.193 0.006-0.29 0.019-0.58 0.076-1.096 0.374-1.452 0.838s-0.51 1.039-0.434 1.619c0.143 1.086 1.075 1.905 2.168 1.905 0.096 0 0.194-0.006 0.29-0.019 1.197-0.158 2.043-1.26 1.886-2.458z"></path>
<path d="M21.001 25.872l-2.641 0.348c-0.47 0.063-0.902-0.269-0.964-0.74s0.269-0.902 0.74-0.964l2.641-0.348c0.038-0.005 0.076-0.007 0.113-0.007 0.425 0 0.794 0.315 0.851 0.747 0.062 0.471-0.269 0.902-0.74 0.964z"></path>
<path d="M19.662 19.53l-0.233 1.772c-0.062 0.471-0.493 0.802-0.964 0.74s-0.802-0.493-0.74-0.964l0.233-1.772c0.057-0.432 0.426-0.747 0.851-0.747 0.037 0 0.075 0.002 0.113 0.008 0.471 0.062 0.802 0.493 0.74 0.964z"></path>
</symbol>
<symbol id="restorant" viewBox="0 0 44 44" fill="currentcolor">
<path d="M41.937 36.437h-4.812v-13.811c0.425-0.087 0.826-0.266 1.175-0.524s0.638-0.589 0.846-0.97c0.208-0.381 0.331-0.802 0.36-1.236s-0.037-0.867-0.193-1.272l-2.188-5.69v-10.872c0-0.090-0.018-0.18-0.052-0.263s-0.085-0.159-0.149-0.223c-0.064-0.064-0.14-0.115-0.223-0.149s-0.173-0.052-0.263-0.052h-28.875c-0.090-0-0.18 0.018-0.263 0.052s-0.159 0.085-0.223 0.149c-0.064 0.064-0.115 0.14-0.149 0.223s-0.052 0.173-0.052 0.263v10.872l-2.188 5.69c-0.156 0.405-0.222 0.839-0.193 1.272s0.152 0.855 0.36 1.236 0.497 0.712 0.846 0.97c0.349 0.258 0.75 0.437 1.175 0.524v13.811h-4.813c-0.090 0-0.18 0.018-0.263 0.052s-0.159 0.085-0.223 0.149-0.115 0.14-0.149 0.223c-0.035 0.083-0.052 0.173-0.052 0.263v4.812c-0 0.090 0.018 0.18 0.052 0.263s0.085 0.159 0.149 0.223c0.064 0.064 0.14 0.115 0.223 0.149s0.173 0.052 0.263 0.052h39.875c0.090 0 0.18-0.018 0.263-0.052s0.159-0.085 0.223-0.149c0.064-0.064 0.115-0.14 0.149-0.223s0.052-0.173 0.052-0.263v-4.812c0-0.090-0.018-0.18-0.052-0.263s-0.085-0.159-0.149-0.223c-0.064-0.064-0.14-0.115-0.223-0.149s-0.173-0.052-0.263-0.052zM34.375 36.437v-14.663c0.376 0.39 0.852 0.67 1.375 0.81v13.853h-1.375zM28.875 37.125v4.125h-2.75v-4.813h1.375c0.182 0 0.357-0.072 0.486-0.201s0.201-0.304 0.201-0.486v-2.063c0-0.182-0.072-0.357-0.201-0.486s-0.304-0.201-0.486-0.201h-4.125c-0.182 0-0.357 0.072-0.486 0.201s-0.201 0.304-0.201 0.486v2.063c0 0.182 0.072 0.357 0.201 0.486s0.304 0.201 0.486 0.201h1.375v4.813h-2.75v-4.125c0-0.090-0.018-0.18-0.052-0.263s-0.085-0.159-0.149-0.223c-0.064-0.064-0.14-0.115-0.223-0.149s-0.173-0.052-0.263-0.052h-1.375v-2.062c0-0.090-0.018-0.18-0.052-0.263s-0.085-0.159-0.149-0.223-0.14-0.115-0.223-0.149c-0.083-0.035-0.173-0.052-0.263-0.052h-1.375v-11.063c0.666-0.138 1.266-0.499 1.699-1.024 0.042 0.052 0.087 0.103 0.134 0.153 0.278 0.296 0.615 0.532 0.988 0.693s0.776 0.243 1.183 0.241h0.242c0.407 0.002 0.809-0.080 1.183-0.241s0.71-0.397 0.988-0.693c0.047-0.050 0.092-0.101 0.134-0.153 0.099 0.12 0.208 0.232 0.324 0.335v2.128c-0.911 0.001-1.785 0.363-2.43 1.008s-1.007 1.518-1.008 2.43c0 0.090 0.018 0.18 0.052 0.263s0.085 0.159 0.149 0.223 0.14 0.115 0.223 0.149c0.083 0.035 0.173 0.052 0.263 0.052h6.875c0.090 0 0.18-0.018 0.263-0.052s0.159-0.085 0.223-0.149 0.115-0.14 0.149-0.223c0.035-0.083 0.052-0.173 0.052-0.263-0.001-0.911-0.363-1.785-1.008-2.43s-1.518-1.007-2.43-1.008v-1.438c0.2 0.042 0.403 0.063 0.608 0.063h0.215c0.434 0 0.863-0.094 1.256-0.276s0.743-0.448 1.024-0.779c0.018-0.021 0.035-0.042 0.052-0.064 0.28 0.35 0.636 0.633 1.040 0.827s0.847 0.294 1.296 0.292h0.133c0.432 0.001 0.859-0.092 1.252-0.272v11.272h-1.375c-0.090 0-0.18 0.018-0.263 0.052s-0.159 0.085-0.223 0.149-0.115 0.14-0.149 0.223c-0.035 0.083-0.052 0.173-0.052 0.263v2.062h-1.375c-0.090 0-0.18 0.018-0.263 0.052s-0.159 0.085-0.223 0.149c-0.064 0.064-0.115 0.14-0.149 0.223s-0.052 0.173-0.052 0.263zM24.063 35.063v-0.688h2.75v0.688h-2.75zM10.694 19.273l1.518-5.523h2.79l-1.024 6.211c-0.061 0.378-0.255 0.722-0.547 0.97s-0.663 0.383-1.046 0.382h-0.133c-0.248-0-0.493-0.057-0.716-0.168s-0.417-0.27-0.567-0.467c-0.151-0.197-0.254-0.427-0.302-0.67s-0.039-0.495 0.027-0.735zM11 22.416c0.393 0.18 0.82 0.272 1.252 0.272h0.133c0.448 0.001 0.891-0.098 1.296-0.292s0.76-0.476 1.040-0.827c0.016 0.021 0.034 0.043 0.052 0.064 0.443 0.523 1.053 0.878 1.727 1.004v3.489h-5.5v-3.709zM17.053 21.313c-0.234 0-0.466-0.051-0.679-0.149s-0.401-0.242-0.553-0.421c-0.152-0.179-0.262-0.388-0.325-0.614s-0.075-0.463-0.037-0.694l0.937-5.685h2.815l-0.332 6.036c-0.023 0.412-0.202 0.8-0.502 1.084s-0.697 0.442-1.11 0.442h-0.215zM23.293 20.808c-0.15 0.16-0.332 0.287-0.534 0.374s-0.419 0.131-0.639 0.13h-0.242c-0.219-0-0.436-0.045-0.637-0.131s-0.383-0.213-0.534-0.372c-0.151-0.159-0.268-0.347-0.344-0.552s-0.109-0.424-0.098-0.643l0.321-5.864h2.824l0.321 5.859v0.004c0.013 0.219-0.020 0.438-0.096 0.643s-0.193 0.393-0.344 0.551zM25.12 19.786l-0.332-6.036h2.815l0.937 5.685c0.038 0.231 0.026 0.468-0.037 0.694s-0.173 0.435-0.325 0.614c-0.152 0.179-0.34 0.322-0.553 0.421s-0.444 0.149-0.679 0.149h-0.215c-0.413-0-0.81-0.158-1.11-0.442s-0.48-0.672-0.502-1.084v0zM26.125 25.437c0.426 0.001 0.842 0.133 1.19 0.379s0.612 0.594 0.754 0.996h-5.265c0.143-0.402 0.406-0.75 0.754-0.996s0.764-0.379 1.19-0.379h1.375zM33.032 20.677c-0.15 0.198-0.344 0.359-0.567 0.469s-0.468 0.167-0.717 0.167h-0.133c-0.383 0.001-0.754-0.134-1.046-0.382s-0.486-0.592-0.547-0.97l-1.024-6.211h2.79l1.517 5.52c0 0.001 0.001 0.003 0.001 0.003 0.066 0.239 0.075 0.49 0.028 0.734s-0.151 0.473-0.302 0.67zM32.313 35.063h0.687v1.375h-0.687v-1.375zM38.030 19.118c0.094 0.245 0.127 0.509 0.097 0.769s-0.124 0.509-0.273 0.725c-0.148 0.216-0.347 0.393-0.579 0.515s-0.49 0.186-0.752 0.186c-0.354-0.001-0.697-0.117-0.978-0.332s-0.485-0.515-0.579-0.855l-1.751-6.376h2.752l2.064 5.368zM8.25 2.75h27.5v9.625h-27.5v-9.625zM6.146 20.612c-0.15-0.215-0.245-0.464-0.276-0.725s0.003-0.525 0.099-0.769l2.064-5.368h2.752l-1.751 6.376c-0.094 0.341-0.298 0.641-0.579 0.855s-0.625 0.331-0.978 0.332c-0.262 0.002-0.521-0.061-0.753-0.183s-0.431-0.3-0.578-0.517zM8.25 22.584c0.523-0.14 0.999-0.42 1.375-0.81v14.663h-1.375v-13.853zM13.75 41.25h-11v-3.437h11v3.437zM14.437 36.437h-3.437v-8.937h5.5v13.75h-1.375v-4.125c0-0.090-0.018-0.18-0.052-0.263s-0.085-0.159-0.149-0.223c-0.064-0.064-0.14-0.115-0.223-0.149s-0.173-0.052-0.263-0.052zM17.875 35.063h0.688v2.062c-0 0.090 0.018 0.18 0.052 0.263s0.085 0.159 0.149 0.223 0.14 0.115 0.223 0.149c0.083 0.035 0.173 0.052 0.263 0.052h1.375v3.437h-2.75v-6.187zM41.25 41.25h-11v-3.437h11v3.437z"></path>
<path d="M26.813 8.25h-0.746c-0.144-0.844-0.547-1.622-1.152-2.227s-1.384-1.008-2.227-1.152v-0.746c0-0.182-0.072-0.357-0.201-0.486s-0.304-0.201-0.486-0.201-0.357 0.072-0.486 0.201c-0.129 0.129-0.201 0.304-0.201 0.486v0.746c-0.844 0.144-1.622 0.547-2.227 1.152s-1.008 1.384-1.152 2.227h-0.746c-0.182 0-0.357 0.072-0.486 0.201s-0.201 0.304-0.201 0.486c0.001 0.729 0.291 1.428 0.806 1.944s1.215 0.806 1.944 0.806h5.5c0.729-0.001 1.428-0.291 1.944-0.806s0.806-1.215 0.806-1.944c0-0.182-0.072-0.357-0.201-0.486s-0.304-0.201-0.486-0.201zM22 6.188c0.61 0.001 1.202 0.204 1.683 0.577s0.826 0.896 0.98 1.486h-5.326c0.153-0.59 0.498-1.112 0.98-1.486s1.074-0.576 1.683-0.577zM24.75 10.313h-5.5c-0.241-0-0.478-0.064-0.687-0.184s-0.382-0.294-0.503-0.503h7.881c-0.121 0.209-0.294 0.382-0.503 0.503s-0.446 0.184-0.687 0.184z"></path>
<path d="M16.881 6.76c0.094-0.063 0.171-0.148 0.225-0.248s0.081-0.211 0.081-0.324v-2.063h-1.375v1.67c-0.218 0.111-0.449 0.196-0.688 0.251v-1.921h-1.375v1.921c-0.239-0.056-0.469-0.14-0.687-0.251v-1.67h-1.375v2.063c0 0.113 0.028 0.225 0.081 0.324s0.131 0.185 0.225 0.248c0.529 0.353 1.128 0.588 1.756 0.687v4.241h1.375v-4.241c0.628-0.1 1.227-0.334 1.756-0.687z"></path>
<path d="M29.562 3.438c-0.669 0-1.316 0.244-1.818 0.687s-0.826 1.053-0.91 1.717c-0.084 0.664 0.076 1.336 0.452 1.89s0.94 0.952 1.589 1.119v2.837h1.375v-2.837c0.648-0.167 1.213-0.565 1.589-1.119s0.536-1.226 0.452-1.89c-0.084-0.664-0.408-1.274-0.91-1.717s-1.149-0.687-1.818-0.687zM29.562 7.563c-0.272 0-0.538-0.081-0.764-0.232s-0.402-0.366-0.506-0.617-0.131-0.528-0.078-0.794c0.053-0.267 0.184-0.512 0.376-0.704s0.437-0.323 0.704-0.376c0.267-0.053 0.543-0.026 0.794 0.078s0.466 0.28 0.617 0.506c0.151 0.226 0.232 0.492 0.232 0.764-0 0.365-0.145 0.714-0.403 0.972s-0.607 0.403-0.972 0.403z"></path>
</symbol>
<symbol id="right" viewBox="0 0 44 44" fill="currentcolor">
<path d="M15.755 41.798l17.938-17.938c1.392-1.399 1.392-3.659 0-5.059l-17.938-17.938c-1.342-1.152-3.326-1.152-4.667 0-1.503 1.288-1.679 3.555-0.391 5.059l15.391 15.391-15.391 15.427c-1.392 1.399-1.392 3.659 0 5.059 1.399 1.392 3.659 1.392 5.059 0z"></path>
</symbol>
<symbol id="sandwich" viewBox="0 0 44 44" fill="currentcolor">
<path d="M41.8 6.6h-1.467v-1.467c0-1.215-0.985-2.2-2.2-2.2h-1.747l-1.061-2.122c-0.247-0.499-0.756-0.813-1.312-0.811h-1.014c-0.81 0-1.467 0.657-1.467 1.467v1.467h-8.067c-1.215 0-2.2 0.985-2.2 2.2v1.467h-1.467c-1.215 0-2.2 0.985-2.2 2.2v1.467c0 0.81 0.657 1.467 1.467 1.467h0.078l0.858 7.577-3.533-0.83c-0.178-0.274-0.367-0.546-0.576-0.813l-1.247-5.366c-0.077-0.332-0.372-0.567-0.713-0.568h-4.214c-1.988-1.752-4.338-2.544-6.11-2.023l-1.077-1.173c-0.407-0.444-1.046-0.59-1.605-0.367-0.56 0.216-0.929 0.755-0.928 1.355v32.289c0.002 1.206 0.979 2.184 2.185 2.185h35.948c0.373-0 0.686-0.28 0.728-0.651l3.593-31.616h0.079c0.81 0 1.467-0.657 1.467-1.467v-1.467c-0-1.215-0.985-2.2-2.2-2.2zM33 1.467h1.014l0.733 1.467h-1.747v-1.467zM22.733 5.133c0-0.405 0.328-0.733 0.733-0.733h14.667c0.405 0 0.733 0.328 0.733 0.733v1.467h-16.133v-1.467zM20.68 20.973l0.046 0.009 0.592 0.141 0.398 4.162c-1.152-0.815-2.53-1.25-3.941-1.242 0.272-1.294 0.128-2.64-0.411-3.848l3.315 0.779zM22.113 27.46l0.009 0.008c0.266 0.246 0.518 0.506 0.755 0.779 0.872 0.973 1.514 2.131 1.877 3.387 0.124 0.437 0.188 0.89 0.19 1.344l-6.849-7.47c1.523 0.171 2.942 0.86 4.018 1.952zM14.385 18.14v-0.002c1.583 1.819 2.32 4.003 1.97 5.471l-7.463-8.136c1.506-0.337 3.795 0.721 5.493 2.666zM13.347 13.2l0.587 2.497c-0.589-0.46-1.232-0.847-1.913-1.154-0.277-0.469-0.587-0.918-0.928-1.343h2.254zM9.66 13.745h0.003c0.061 0.070 0.111 0.147 0.169 0.22-0.688-0.063-1.382 0.053-2.012 0.338l-3.015-3.288c1.474 0.021 3.398 1.058 4.854 2.73zM30.737 42.102c-0.113 0.261-0.371 0.43-0.656 0.431h-27.896c-0.397 0-0.719-0.322-0.719-0.719l-0.013-32.281 28.115 30.658c0.017 0.022 0.035 0.044 0.054 0.065l0.983 1.072c0.194 0.209 0.246 0.512 0.132 0.773zM26.198 34.345c0.134-0.438 0.202-0.893 0.202-1.351 0.385 0.325 0.744 0.68 1.074 1.061 0.41 0.468 0.773 0.974 1.086 1.512 0.428 0.72 0.731 1.508 0.895 2.329l-3.257-3.551zM37.478 42.533h-5.342c0.275-0.76 0.101-1.609-0.451-2.2l-0.739-0.807c0.145-1.228-0.053-2.471-0.572-3.593h7.854l-0.75 6.6zM38.395 34.467h-8.8c-0.301-0.483-0.638-0.942-1.009-1.374-0.722-0.838-1.569-1.558-2.512-2.136-0.431-1.359-1.143-2.611-2.091-3.676-0.22-0.249-0.44-0.482-0.671-0.706l-0.579-6.111c-0.030-0.313-0.255-0.571-0.561-0.644l-0.65-0.154-0.154-1.333h18.861l-1.834 16.133zM40.396 16.867h-19.193l-0.581-5.133h20.357l-0.583 5.133zM42.533 10.267h-23.467v-1.467c0-0.405 0.328-0.733 0.733-0.733h22c0.405 0 0.733 0.328 0.733 0.733v1.467z"></path>
<path d="M31.101 32.267c0.042 0 0.083-0.006 0.124-0.007 0.011 0 0.022 0.007 0.033 0.007 0.037-0.002 0.073-0.007 0.109-0.015 1.148-0.078 2.206-0.65 2.899-1.568 0.924-1.298 1.188-2.953 0.714-4.475-0.102-0.38-0.195-0.752-0.285-1.112-0.572-2.293-1.118-4.456-3.435-4.553-0.023 0-0.045-0.004-0.069-0.004s-0.058-0.005-0.090-0.005c-2.592 0-4.701 2.632-4.701 5.867s2.109 5.866 4.701 5.866zM31.668 22.11c0.758 0.298 1.092 1.291 1.604 3.341 0.092 0.367 0.187 0.751 0.293 1.14 0.351 1.081 0.18 2.264-0.464 3.2-0.234 0.307-0.533 0.557-0.876 0.733-0.025-1.261-0.273-2.507-0.733-3.681-0.073-0.229-0.147-0.449-0.211-0.66-0.427-1.388 0.073-3.187 0.387-4.074zM30.092 22.22c-0.477 1.416-0.551 2.938-0.212 4.393 0.068 0.22 0.142 0.448 0.22 0.685 0.367 1.119 0.807 2.472 0.627 3.468-1.607-0.251-2.861-2.112-2.861-4.366 0-1.947 0.935-3.6 2.226-4.18z"></path>
<path d="M3.881 38.563l-0.518 0.519c-0.191 0.184-0.267 0.457-0.2 0.713s0.267 0.457 0.524 0.524c0.256 0.067 0.529-0.009 0.713-0.2l0.518-0.519c0.278-0.288 0.274-0.745-0.009-1.028s-0.74-0.287-1.028-0.009z"></path>
<path d="M10.893 33.626c0.287-0.287 0.287-0.751 0-1.038s-0.751-0.287-1.038 0l-0.518 0.519c-0.185 0.185-0.258 0.455-0.19 0.708s0.265 0.451 0.518 0.519c0.253 0.068 0.523-0.004 0.709-0.19l0.519-0.518z"></path>
<path d="M4.4 31.748l-0.518 0.519c-0.191 0.184-0.267 0.457-0.2 0.713s0.267 0.457 0.524 0.524c0.256 0.067 0.529-0.009 0.713-0.2l0.518-0.519c0.278-0.288 0.274-0.745-0.009-1.028s-0.74-0.287-1.028-0.009z"></path>
<path d="M4.4 26.615l-0.518 0.518c-0.191 0.184-0.267 0.457-0.2 0.713s0.267 0.457 0.524 0.524c0.256 0.067 0.529-0.009 0.713-0.2l0.518-0.518c0.278-0.288 0.274-0.745-0.009-1.028s-0.74-0.287-1.028-0.009z"></path>
<path d="M11 38.563l-0.519 0.519c-0.191 0.184-0.267 0.457-0.2 0.713s0.267 0.457 0.524 0.524 0.529-0.009 0.713-0.2l0.519-0.519c0.278-0.288 0.274-0.745-0.009-1.028s-0.74-0.287-1.028-0.009z"></path>
<path d="M16.348 38.563l-0.518 0.518c-0.191 0.184-0.267 0.457-0.2 0.713s0.267 0.457 0.524 0.524c0.256 0.067 0.529-0.009 0.713-0.2l0.518-0.519c0.278-0.288 0.274-0.745-0.009-1.028s-0.74-0.287-1.028-0.009z"></path>
</symbol>
<symbol id="search" viewBox="0 0 44 44" fill="currentcolor">
<path stroke-linejoin="round" stroke-linecap="round" stroke-miterlimit="4" stroke-width="3" d="M38.51 21.26c0 9.813-8.049 17.768-17.977 17.768s-17.977-7.955-17.977-17.768c0-9.813 8.049-17.768 17.977-17.768s17.977 7.955 17.977 17.768z"></path>
<path stroke-linejoin="round" stroke-linecap="round" stroke-miterlimit="4" stroke-width="3" d="M33.037 34.541l7.048 6.948"></path>
</symbol>
<symbol id="telegram" viewBox="0 0 44 44" fill="currentcolor">
<path d="M27.333 41.947c-0.761 0-1.463-0.406-1.806-1.055l-5.989-11.318c-0.329-0.621-0.272-1.365 0.145-1.939l9.667-12.382-13.105 9.133c-0.607 0.397-1.394 0.446-2.052 0.137l-11.975-5.657c-0.718-0.341-1.156-1.052-1.112-1.811 0.042-0.759 0.561-1.422 1.316-1.684l38.337-13.347c0.736-0.254 1.566-0.088 2.125 0.44 0.557 0.524 0.738 1.31 0.466 2.008l-14.124 36.227c-0.278 0.713-0.979 1.203-1.782 1.243-0.036 0.002-0.075 0.004-0.111 0.004z"></path>
</symbol>
<symbol id="time" viewBox="0 0 44 44" fill="currentcolor">
<path d="M23.15 5.080v-1.918c0-0.324-0.129-0.635-0.358-0.864s-0.54-0.358-0.864-0.358c-0.324 0-0.635 0.129-0.864 0.358s-0.358 0.54-0.358 0.864v1.929c-9.604 0.667-17.216 8.688-17.216 18.459 0 10.205 8.304 18.509 18.511 18.509s18.511-8.304 18.511-18.509c0-9.82-7.688-17.874-17.362-18.47zM22 39.615c-8.859 0-16.067-7.207-16.067-16.065 0-8.859 7.207-16.066 16.067-16.066s16.067 7.207 16.067 16.066c0 8.857-7.207 16.065-16.067 16.065z"></path>
<path d="M15.726 34.643c-3.99-2.263-6.469-6.515-6.469-11.094 0-0.339-0.273-0.611-0.611-0.611s-0.611 0.272-0.611 0.611c0 5.018 2.716 9.677 7.088 12.157 0.141 0.080 0.308 0.101 0.464 0.057s0.289-0.147 0.369-0.288 0.1-0.308 0.057-0.464c-0.043-0.156-0.147-0.289-0.288-0.369z"></path>
<path d="M19.058 36.32c-0.237-0.062-0.472-0.13-0.705-0.204-0.153-0.046-0.319-0.030-0.46 0.045s-0.248 0.202-0.297 0.355-0.036 0.318 0.037 0.461c0.072 0.143 0.198 0.252 0.349 0.303 0.254 0.082 0.51 0.155 0.771 0.222 0.157 0.040 0.323 0.017 0.463-0.065s0.241-0.217 0.281-0.373c0.020-0.078 0.025-0.158 0.014-0.238s-0.038-0.156-0.079-0.225c-0.041-0.069-0.095-0.129-0.159-0.178s-0.137-0.083-0.215-0.103z"></path>
<path d="M37.771 11.456c0.23 0.229 0.541 0.357 0.865 0.357s0.635-0.13 0.864-0.359c0.229-0.229 0.357-0.541 0.357-0.865s-0.13-0.635-0.359-0.864l-3.173-3.166c-0.114-0.113-0.248-0.203-0.397-0.265s-0.307-0.093-0.468-0.092c-0.161 0-0.32 0.032-0.468 0.094s-0.283 0.152-0.396 0.266c-0.229 0.23-0.357 0.541-0.356 0.865s0.129 0.635 0.359 0.864l3.173 3.166z"></path>
<path d="M23.149 23.323v-9.771c0-0.324-0.129-0.635-0.358-0.864s-0.54-0.358-0.864-0.358c-0.324 0-0.635 0.129-0.864 0.358s-0.358 0.54-0.358 0.864v10.299c0 0.337 0.175 0.658 0.42 0.888l3.577 3.343c0.236 0.222 0.538 0.334 0.839 0.334 0.164 0 0.326-0.034 0.475-0.1s0.284-0.163 0.394-0.284c0.465-0.491 0.424-1.264-0.067-1.728l-3.194-2.981z"></path>
</symbol>
<symbol id="timer" viewBox="0 0 44 44" fill="currentcolor">
<path d="M41.094 16.67l1.289-1.289c0.373-0.373 0.578-0.868 0.578-1.395s-0.205-1.022-0.578-1.395l-1.476-1.476c-0.373-0.373-0.868-0.578-1.395-0.578s-1.022 0.205-1.395 0.578l-1.289 1.289c-1.701-1.172-3.632-2.033-5.71-2.502v-1.905h0.784c1.062 0 1.926-0.864 1.926-1.926v-2.679c0-1.062-0.864-1.926-1.926-1.926h-8.867c-1.062 0-1.926 0.864-1.926 1.926v2.679c0 1.062 0.864 1.926 1.926 1.926h0.784v1.91c-2.068 0.47-3.99 1.329-5.685 2.496l-1.289-1.289c-0.372-0.373-0.868-0.578-1.395-0.578s-1.022 0.205-1.395 0.578l-1.476 1.476c-0.769 0.769-0.769 2.021 0 2.79l0.229 0.229h-6.092c-0.475 0-0.859 0.385-0.859 0.859s0.385 0.859 0.859 0.859h6.721c-0.64 1.031-1.171 2.138-1.573 3.303h-11.006c-0.475 0-0.859 0.385-0.859 0.859s0.385 0.859 0.859 0.859h10.515c-0.242 1.066-0.381 2.17-0.406 3.303h-5.468c-0.475 0-0.859 0.385-0.859 0.859s0.385 0.859 0.859 0.859h5.519c0.093 1.137 0.302 2.242 0.614 3.303h-7.337c-0.475 0-0.859 0.385-0.859 0.859s0.385 0.859 0.859 0.859h7.948c2.5 5.951 8.388 10.141 15.237 10.141 9.108 0 16.518-7.41 16.518-16.518 0-3.467-1.074-6.687-2.906-9.346zM39.332 12.33c0.061-0.061 0.131-0.074 0.179-0.074s0.118 0.013 0.179 0.074l1.476 1.476c0.061 0.061 0.074 0.132 0.074 0.179s-0.013 0.118-0.075 0.179l-1.13 1.13c-0.563-0.658-1.177-1.272-1.835-1.835l1.13-1.13zM22.829 6.071v-2.679c0-0.114 0.093-0.207 0.207-0.207h8.867c0.114 0 0.207 0.093 0.207 0.207v2.679c0 0.114-0.093 0.207-0.207 0.207h-8.867c-0.114 0-0.207-0.093-0.207-0.207zM25.539 7.997h3.861v1.613c-0.629-0.073-1.269-0.112-1.918-0.112-0.657 0-1.305 0.040-1.943 0.115l-0-1.616zM13.796 13.806l1.476-1.476c0.061-0.061 0.131-0.074 0.179-0.074s0.118 0.013 0.179 0.074l1.13 1.13c-0.658 0.563-1.272 1.177-1.835 1.835l-1.13-1.13c-0.099-0.099-0.099-0.26 0-0.359zM27.482 40.816c-8.16 0-14.8-6.639-14.8-14.8s6.639-14.8 14.8-14.8c8.161 0 14.8 6.639 14.8 14.8s-6.639 14.8-14.8 14.8z"></path>
<path d="M33.154 19.128l-4.062 4.062c-0.475-0.272-1.024-0.428-1.61-0.428-1.794 0-3.253 1.459-3.253 3.253s1.459 3.253 3.253 3.253 3.253-1.459 3.253-3.253c0-0.585-0.156-1.135-0.428-1.61l4.062-4.062c0.336-0.336 0.336-0.88 0-1.215s-0.88-0.336-1.215 0zM27.482 27.55c-0.846 0-1.534-0.688-1.534-1.534s0.688-1.534 1.534-1.534 1.534 0.688 1.534 1.534c0 0.846-0.688 1.534-1.534 1.534z"></path>
<path d="M27.482 14.874c0.226 0 0.448-0.092 0.607-0.252s0.252-0.382 0.252-0.608c0-0.226-0.092-0.448-0.252-0.608s-0.382-0.252-0.607-0.252c-0.226 0-0.448 0.092-0.608 0.252s-0.252 0.382-0.252 0.608c0 0.227 0.092 0.448 0.252 0.608s0.382 0.252 0.608 0.252z"></path>
<path d="M27.482 37.158c-0.226 0-0.448 0.092-0.608 0.252s-0.252 0.382-0.252 0.608c0 0.227 0.092 0.448 0.252 0.608s0.382 0.252 0.608 0.252c0.226 0 0.448-0.091 0.607-0.252s0.252-0.382 0.252-0.608c0-0.226-0.092-0.448-0.252-0.608s-0.382-0.252-0.607-0.252z"></path>
<path d="M18.996 16.67c-0.226 0-0.448 0.092-0.608 0.252s-0.252 0.382-0.252 0.608c0 0.227 0.092 0.448 0.252 0.608s0.382 0.251 0.608 0.251c0.226 0 0.448-0.091 0.607-0.251s0.252-0.382 0.252-0.608c0-0.226-0.092-0.447-0.252-0.608s-0.381-0.252-0.607-0.252z"></path>
<path d="M35.968 33.643c-0.227 0-0.448 0.092-0.608 0.252s-0.251 0.382-0.251 0.608c0 0.226 0.091 0.448 0.251 0.608s0.382 0.252 0.608 0.252c0.226 0 0.448-0.092 0.607-0.252s0.252-0.382 0.252-0.608c0-0.226-0.092-0.448-0.252-0.608s-0.382-0.252-0.607-0.252z"></path>
<path d="M18.996 33.643c-0.226 0-0.448 0.092-0.608 0.252s-0.252 0.382-0.252 0.608c0 0.226 0.092 0.448 0.252 0.608s0.382 0.252 0.608 0.252c0.226 0 0.448-0.092 0.607-0.252s0.252-0.382 0.252-0.608c0-0.226-0.092-0.448-0.252-0.608s-0.381-0.252-0.607-0.252z"></path>
<path d="M15.481 25.156c-0.227 0-0.448 0.092-0.608 0.252s-0.252 0.382-0.252 0.607c0 0.226 0.091 0.448 0.252 0.608s0.381 0.252 0.608 0.252c0.226 0 0.448-0.091 0.608-0.252s0.252-0.382 0.252-0.608c0-0.226-0.092-0.448-0.252-0.607s-0.382-0.252-0.608-0.252z"></path>
<path d="M40.091 25.408c-0.16-0.16-0.382-0.252-0.608-0.252s-0.448 0.092-0.607 0.252c-0.16 0.16-0.252 0.382-0.252 0.607 0 0.227 0.092 0.448 0.252 0.608s0.381 0.252 0.607 0.252c0.226 0 0.448-0.092 0.608-0.252s0.252-0.382 0.252-0.608c0-0.226-0.092-0.448-0.252-0.607z"></path>
<path d="M0.859 30.675c-0.226 0-0.448 0.091-0.608 0.251s-0.252 0.382-0.252 0.608c0 0.226 0.092 0.447 0.252 0.608s0.382 0.252 0.608 0.252 0.448-0.092 0.607-0.252c0.16-0.16 0.252-0.382 0.252-0.608s-0.092-0.449-0.252-0.608c-0.16-0.16-0.381-0.251-0.607-0.251z"></path>
<path d="M39.23 23.407c0.455-0.135 0.714-0.614 0.578-1.069-0.608-2.038-1.729-3.915-3.243-5.425s-3.393-2.628-5.433-3.231c-0.455-0.135-0.933 0.125-1.068 0.581s0.125 0.933 0.581 1.068c3.626 1.072 6.436 3.875 7.516 7.499 0.111 0.373 0.453 0.614 0.823 0.614 0.081 0 0.164-0.012 0.246-0.036z"></path>
</symbol>
<symbol id="twitter" viewBox="0 0 44 44" fill="currentcolor">
<path d="M43.007 8.341c-1.581 0.682-3.303 1.173-5.076 1.365 1.841-1.093 3.219-2.821 3.876-4.858-1.727 1.027-3.619 1.748-5.592 2.129-0.825-0.882-1.822-1.584-2.93-2.063s-2.303-0.725-3.51-0.723c-4.884 0-8.812 3.959-8.812 8.818 0 0.682 0.083 1.364 0.217 2.021-7.314-0.382-13.836-3.876-18.173-9.226-0.79 1.35-1.204 2.886-1.199 4.45 0 3.060 1.556 5.758 3.928 7.345-1.398-0.055-2.763-0.439-3.985-1.122v0.109c0 4.285 3.029 7.836 7.065 8.652-0.758 0.197-1.538 0.298-2.321 0.3-0.574 0-1.116-0.057-1.664-0.134 1.116 3.494 4.367 6.032 8.239 6.114-3.029 2.372-6.822 3.768-10.942 3.768-0.739 0-1.421-0.026-2.129-0.109 3.907 2.507 8.544 3.954 13.536 3.954 16.209 0 25.078-13.428 25.078-25.083 0-0.382 0-0.765-0.026-1.147 1.716-1.256 3.22-2.812 4.419-4.559z"></path>
</symbol>
</defs>
</svg>
